<mxfile host="drawio-plugin" modified="2021-09-28T06:33:18.921Z" agent="5.0 (Windows NT 6.2; Win64; x64) AppleWebKit/537.36 (KHTML, like Gecko) Chrome/89.0.4389.90 Safari/537.36" etag="XVdWc-r6ULNS44xja4iF" version="14.7.4" type="embed"><diagram id="C5RBs43oDa-KdzZeNtuy" name="Page-1"><mxGraphModel dx="1593" dy="1843" grid="1" gridSize="10" guides="1" tooltips="1" connect="1" arrows="1" fold="1" page="1" pageScale="1" pageWidth="827" pageHeight="1169" math="0" shadow="0"><root><mxCell id="WIyWlLk6GJQsqaUBKTNV-0"/><mxCell id="WIyWlLk6GJQsqaUBKTNV-1" parent="WIyWlLk6GJQsqaUBKTNV-0"/><mxCell id="zkfFHV4jXpPFQw0GAbJ--0" value="&lt;&lt;Entity&gt;&gt; &lt;&lt;Table&gt;&gt; UserDTO" style="swimlane;fontStyle=2;align=center;verticalAlign=top;childLayout=stackLayout;horizontal=1;startSize=26;horizontalStack=0;resizeParent=1;resizeLast=0;collapsible=1;marginBottom=0;rounded=0;shadow=0;strokeWidth=1;" parent="WIyWlLk6GJQsqaUBKTNV-1" vertex="1"><mxGeometry x="-600" y="585" width="220" height="300" as="geometry"><mxRectangle x="230" y="140" width="160" height="26" as="alternateBounds"/></mxGeometry></mxCell><mxCell id="-_xTnc1p_r5YANseTXnQ-41" value="&lt;&lt;id&gt;&gt;&#10;&lt;&lt;strategy=GenerationType.AUTO&#10;- id: int" style="text;align=left;verticalAlign=top;spacingLeft=4;spacingRight=4;overflow=hidden;rotatable=0;points=[[0,0.5],[1,0.5]];portConstraint=eastwest;" parent="zkfFHV4jXpPFQw0GAbJ--0" vertex="1"><mxGeometry y="26" width="220" height="54" as="geometry"/></mxCell><mxCell id="zkfFHV4jXpPFQw0GAbJ--1" value="- name: String" style="text;align=left;verticalAlign=top;spacingLeft=4;spacingRight=4;overflow=hidden;rotatable=0;points=[[0,0.5],[1,0.5]];portConstraint=eastwest;" parent="zkfFHV4jXpPFQw0GAbJ--0" vertex="1"><mxGeometry y="80" width="220" height="30" as="geometry"/></mxCell><mxCell id="zkfFHV4jXpPFQw0GAbJ--3" value="- email Address: String" style="text;align=left;verticalAlign=top;spacingLeft=4;spacingRight=4;overflow=hidden;rotatable=0;points=[[0,0.5],[1,0.5]];portConstraint=eastwest;rounded=0;shadow=0;html=0;" parent="zkfFHV4jXpPFQw0GAbJ--0" vertex="1"><mxGeometry y="110" width="220" height="26" as="geometry"/></mxCell><mxCell id="zkfFHV4jXpPFQw0GAbJ--18" value="- password: String" style="text;align=left;verticalAlign=top;spacingLeft=4;spacingRight=4;overflow=hidden;rotatable=0;points=[[0,0.5],[1,0.5]];portConstraint=eastwest;" parent="zkfFHV4jXpPFQw0GAbJ--0" vertex="1"><mxGeometry y="136" width="220" height="26" as="geometry"/></mxCell><mxCell id="-_xTnc1p_r5YANseTXnQ-157" value="&lt;&lt;OneToMany&gt;&gt;&#10;&lt;&lt;cascade=CascadeType.ALL&gt;&gt;  &#10;- playlists: Playlist[0..*]" style="text;align=left;verticalAlign=top;spacingLeft=4;spacingRight=4;overflow=hidden;rotatable=0;points=[[0,0.5],[1,0.5]];portConstraint=eastwest;" parent="zkfFHV4jXpPFQw0GAbJ--0" vertex="1"><mxGeometry y="162" width="220" height="58" as="geometry"/></mxCell><mxCell id="zkfFHV4jXpPFQw0GAbJ--4" value="" style="line;html=1;strokeWidth=1;align=left;verticalAlign=middle;spacingTop=-1;spacingLeft=3;spacingRight=3;rotatable=0;labelPosition=right;points=[];portConstraint=eastwest;" parent="zkfFHV4jXpPFQw0GAbJ--0" vertex="1"><mxGeometry y="220" width="220" height="8" as="geometry"/></mxCell><mxCell id="zkfFHV4jXpPFQw0GAbJ--5" value="&lt;&lt;Lombok&gt;&gt; &#10;@Data&#10;@NoArgsConstructor&#10;@AllArgsConstructor &#10;&#10;" style="text;align=left;verticalAlign=top;spacingLeft=4;spacingRight=4;overflow=hidden;rotatable=0;points=[[0,0.5],[1,0.5]];portConstraint=eastwest;" parent="zkfFHV4jXpPFQw0GAbJ--0" vertex="1"><mxGeometry y="228" width="220" height="72" as="geometry"/></mxCell><mxCell id="-_xTnc1p_r5YANseTXnQ-36" style="edgeStyle=orthogonalEdgeStyle;rounded=0;orthogonalLoop=1;jettySize=auto;html=1;endArrow=diamond;endFill=1;exitX=0.5;exitY=0;exitDx=0;exitDy=0;entryX=0.5;entryY=1;entryDx=0;entryDy=0;" parent="WIyWlLk6GJQsqaUBKTNV-1" source="-_xTnc1p_r5YANseTXnQ-50" target="-_xTnc1p_r5YANseTXnQ-24" edge="1"><mxGeometry relative="1" as="geometry"><mxPoint x="90" y="400" as="targetPoint"/></mxGeometry></mxCell><mxCell id="-_xTnc1p_r5YANseTXnQ-58" style="edgeStyle=orthogonalEdgeStyle;rounded=0;orthogonalLoop=1;jettySize=auto;html=1;endArrow=diamond;endFill=1;entryX=0.5;entryY=1;entryDx=0;entryDy=0;" parent="WIyWlLk6GJQsqaUBKTNV-1" source="-_xTnc1p_r5YANseTXnQ-1" target="-_xTnc1p_r5YANseTXnQ-50" edge="1"><mxGeometry relative="1" as="geometry"><mxPoint x="-202.44000000000005" y="688.1679999999997" as="targetPoint"/></mxGeometry></mxCell><mxCell id="-_xTnc1p_r5YANseTXnQ-1" value="&lt;&lt;Repository&gt;&gt; UserDAO" style="swimlane;fontStyle=2;align=center;verticalAlign=top;childLayout=stackLayout;horizontal=1;startSize=26;horizontalStack=0;resizeParent=1;resizeLast=0;collapsible=1;marginBottom=0;rounded=0;shadow=0;strokeWidth=1;" parent="WIyWlLk6GJQsqaUBKTNV-1" vertex="1"><mxGeometry x="-280" y="830" width="280" height="230" as="geometry"><mxRectangle x="230" y="140" width="160" height="26" as="alternateBounds"/></mxGeometry></mxCell><mxCell id="-_xTnc1p_r5YANseTXnQ-2" value="- final userRepository: UserRepository" style="text;align=left;verticalAlign=top;spacingLeft=4;spacingRight=4;overflow=hidden;rotatable=0;points=[[0,0.5],[1,0.5]];portConstraint=eastwest;" parent="-_xTnc1p_r5YANseTXnQ-1" vertex="1"><mxGeometry y="26" width="280" height="34" as="geometry"/></mxCell><mxCell id="-_xTnc1p_r5YANseTXnQ-6" value="" style="line;html=1;strokeWidth=1;align=left;verticalAlign=middle;spacingTop=-1;spacingLeft=3;spacingRight=3;rotatable=0;labelPosition=right;points=[];portConstraint=eastwest;" parent="-_xTnc1p_r5YANseTXnQ-1" vertex="1"><mxGeometry y="60" width="280" height="8" as="geometry"/></mxCell><mxCell id="1" value="+ UserDAO(repository: UserRepository)" style="text;strokeColor=none;fillColor=none;align=left;verticalAlign=top;spacingLeft=4;spacingRight=4;overflow=hidden;rotatable=0;points=[[0,0.5],[1,0.5]];portConstraint=eastwest;" parent="-_xTnc1p_r5YANseTXnQ-1" vertex="1"><mxGeometry y="68" width="280" height="26" as="geometry"/></mxCell><mxCell id="-_xTnc1p_r5YANseTXnQ-12" value="+ addUser(userDTO: UserDTO): void" style="text;strokeColor=none;fillColor=none;align=left;verticalAlign=top;spacingLeft=4;spacingRight=4;overflow=hidden;rotatable=0;points=[[0,0.5],[1,0.5]];portConstraint=eastwest;" parent="-_xTnc1p_r5YANseTXnQ-1" vertex="1"><mxGeometry y="94" width="280" height="26" as="geometry"/></mxCell><mxCell id="-_xTnc1p_r5YANseTXnQ-15" value="+ getAllUsers(): Iterable&lt;UserDTO[]&gt;" style="text;strokeColor=none;fillColor=none;align=left;verticalAlign=top;spacingLeft=4;spacingRight=4;overflow=hidden;rotatable=0;points=[[0,0.5],[1,0.5]];portConstraint=eastwest;" parent="-_xTnc1p_r5YANseTXnQ-1" vertex="1"><mxGeometry y="120" width="280" height="26" as="geometry"/></mxCell><mxCell id="-_xTnc1p_r5YANseTXnQ-16" value="+ findUserById(id: int): Optional&lt;UserDTO&gt;" style="text;strokeColor=none;fillColor=none;align=left;verticalAlign=top;spacingLeft=4;spacingRight=4;overflow=hidden;rotatable=0;points=[[0,0.5],[1,0.5]];portConstraint=eastwest;" parent="-_xTnc1p_r5YANseTXnQ-1" vertex="1"><mxGeometry y="146" width="280" height="26" as="geometry"/></mxCell><mxCell id="-_xTnc1p_r5YANseTXnQ-13" value="+ deleteUser(id: int): void" style="text;strokeColor=none;fillColor=none;align=left;verticalAlign=top;spacingLeft=4;spacingRight=4;overflow=hidden;rotatable=0;points=[[0,0.5],[1,0.5]];portConstraint=eastwest;" parent="-_xTnc1p_r5YANseTXnQ-1" vertex="1"><mxGeometry y="172" width="280" height="26" as="geometry"/></mxCell><mxCell id="6" value="+ deleteAllUsers(): void" style="text;strokeColor=none;fillColor=none;align=left;verticalAlign=top;spacingLeft=4;spacingRight=4;overflow=hidden;rotatable=0;points=[[0,0.5],[1,0.5]];portConstraint=eastwest;" parent="-_xTnc1p_r5YANseTXnQ-1" vertex="1"><mxGeometry y="198" width="280" height="26" as="geometry"/></mxCell><mxCell id="-_xTnc1p_r5YANseTXnQ-136" style="edgeStyle=orthogonalEdgeStyle;rounded=0;orthogonalLoop=1;jettySize=auto;html=1;entryX=0.5;entryY=1;entryDx=0;entryDy=0;endArrow=diamond;endFill=0;" parent="WIyWlLk6GJQsqaUBKTNV-1" source="-_xTnc1p_r5YANseTXnQ-17" target="-_xTnc1p_r5YANseTXnQ-127" edge="1"><mxGeometry relative="1" as="geometry"/></mxCell><mxCell id="-_xTnc1p_r5YANseTXnQ-184" style="edgeStyle=orthogonalEdgeStyle;rounded=0;orthogonalLoop=1;jettySize=auto;html=1;entryX=0.5;entryY=0;entryDx=0;entryDy=0;entryPerimeter=0;endArrow=none;endFill=0;" parent="WIyWlLk6GJQsqaUBKTNV-1" source="-_xTnc1p_r5YANseTXnQ-17" target="-_xTnc1p_r5YANseTXnQ-183" edge="1"><mxGeometry relative="1" as="geometry"/></mxCell><mxCell id="-_xTnc1p_r5YANseTXnQ-17" value="CrudRepository" style="swimlane;fontStyle=2;align=center;verticalAlign=top;childLayout=stackLayout;horizontal=1;startSize=26;horizontalStack=0;resizeParent=1;resizeLast=0;collapsible=1;marginBottom=0;rounded=0;shadow=0;strokeWidth=1;" parent="WIyWlLk6GJQsqaUBKTNV-1" vertex="1"><mxGeometry x="-65" y="1360" width="220" height="150" as="geometry"><mxRectangle x="230" y="140" width="160" height="26" as="alternateBounds"/></mxGeometry></mxCell><mxCell id="-_xTnc1p_r5YANseTXnQ-20" value="+ save(RestEntity): void" style="text;strokeColor=none;fillColor=none;align=left;verticalAlign=top;spacingLeft=4;spacingRight=4;overflow=hidden;rotatable=0;points=[[0,0.5],[1,0.5]];portConstraint=eastwest;" parent="-_xTnc1p_r5YANseTXnQ-17" vertex="1"><mxGeometry y="26" width="220" height="26" as="geometry"/></mxCell><mxCell id="-_xTnc1p_r5YANseTXnQ-21" value="+ findAll(): RestEntity[]" style="text;strokeColor=none;fillColor=none;align=left;verticalAlign=top;spacingLeft=4;spacingRight=4;overflow=hidden;rotatable=0;points=[[0,0.5],[1,0.5]];portConstraint=eastwest;" parent="-_xTnc1p_r5YANseTXnQ-17" vertex="1"><mxGeometry y="52" width="220" height="26" as="geometry"/></mxCell><mxCell id="-_xTnc1p_r5YANseTXnQ-22" value="+ findById(id: int): void" style="text;strokeColor=none;fillColor=none;align=left;verticalAlign=top;spacingLeft=4;spacingRight=4;overflow=hidden;rotatable=0;points=[[0,0.5],[1,0.5]];portConstraint=eastwest;" parent="-_xTnc1p_r5YANseTXnQ-17" vertex="1"><mxGeometry y="78" width="220" height="26" as="geometry"/></mxCell><mxCell id="-_xTnc1p_r5YANseTXnQ-23" value="+ deleteById(id: int): void" style="text;strokeColor=none;fillColor=none;align=left;verticalAlign=top;spacingLeft=4;spacingRight=4;overflow=hidden;rotatable=0;points=[[0,0.5],[1,0.5]];portConstraint=eastwest;" parent="-_xTnc1p_r5YANseTXnQ-17" vertex="1"><mxGeometry y="104" width="220" height="26" as="geometry"/></mxCell><mxCell id="-_xTnc1p_r5YANseTXnQ-179" style="edgeStyle=orthogonalEdgeStyle;rounded=0;orthogonalLoop=1;jettySize=auto;html=1;entryX=0.442;entryY=1.004;entryDx=0;entryDy=0;entryPerimeter=0;endArrow=none;endFill=0;" parent="WIyWlLk6GJQsqaUBKTNV-1" source="-_xTnc1p_r5YANseTXnQ-24" target="-_xTnc1p_r5YANseTXnQ-96" edge="1"><mxGeometry relative="1" as="geometry"/></mxCell><mxCell id="-_xTnc1p_r5YANseTXnQ-24" value="&lt;&lt;RestController&gt;&gt; UserController" style="swimlane;fontStyle=2;align=center;verticalAlign=top;childLayout=stackLayout;horizontal=1;startSize=26;horizontalStack=0;resizeParent=1;resizeLast=0;collapsible=1;marginBottom=0;rounded=0;shadow=0;strokeWidth=1;" parent="WIyWlLk6GJQsqaUBKTNV-1" vertex="1"><mxGeometry x="-480" y="-160" width="480" height="428" as="geometry"><mxRectangle x="550" y="110" width="160" height="26" as="alternateBounds"/></mxGeometry></mxCell><mxCell id="-_xTnc1p_r5YANseTXnQ-37" value="&lt;&lt;RequestMapping&gt;&gt;&#10; value=&quot;/api/user&quot; " style="text;align=left;verticalAlign=top;spacingLeft=4;spacingRight=4;overflow=hidden;rotatable=0;points=[[0,0.5],[1,0.5]];portConstraint=eastwest;" parent="-_xTnc1p_r5YANseTXnQ-24" vertex="1"><mxGeometry y="26" width="480" height="44" as="geometry"/></mxCell><mxCell id="-_xTnc1p_r5YANseTXnQ-35" value="&lt;&lt;Autowired&gt;&gt;&#10;- userService: UserService " style="text;align=left;verticalAlign=top;spacingLeft=4;spacingRight=4;overflow=hidden;rotatable=0;points=[[0,0.5],[1,0.5]];portConstraint=eastwest;" parent="-_xTnc1p_r5YANseTXnQ-24" vertex="1"><mxGeometry y="70" width="480" height="40" as="geometry"/></mxCell><mxCell id="-_xTnc1p_r5YANseTXnQ-25" value="" style="line;html=1;strokeWidth=1;align=left;verticalAlign=middle;spacingTop=-1;spacingLeft=3;spacingRight=3;rotatable=0;labelPosition=right;points=[];portConstraint=eastwest;" parent="-_xTnc1p_r5YANseTXnQ-24" vertex="1"><mxGeometry y="110" width="480" height="8" as="geometry"/></mxCell><mxCell id="-_xTnc1p_r5YANseTXnQ-64" value="+ UserController(userService: UserService)" style="text;strokeColor=none;fillColor=none;align=left;verticalAlign=top;spacingLeft=4;spacingRight=4;overflow=hidden;rotatable=0;points=[[0,0.5],[1,0.5]];portConstraint=eastwest;" parent="-_xTnc1p_r5YANseTXnQ-24" vertex="1"><mxGeometry y="118" width="480" height="32" as="geometry"/></mxCell><mxCell id="-_xTnc1p_r5YANseTXnQ-63" value="&lt;&lt;GetMapping&gt;&gt;&#10;+ addUser(&lt;&lt;RequestBody&gt;&gt; user: User): User" style="text;strokeColor=none;fillColor=none;align=left;verticalAlign=top;spacingLeft=4;spacingRight=4;overflow=hidden;rotatable=0;points=[[0,0.5],[1,0.5]];portConstraint=eastwest;" parent="-_xTnc1p_r5YANseTXnQ-24" vertex="1"><mxGeometry y="150" width="480" height="46" as="geometry"/></mxCell><mxCell id="-_xTnc1p_r5YANseTXnQ-26" value="&lt;&lt;GetMapping&gt;&gt;&#10;+ getAllUsers(): User[] " style="text;strokeColor=none;fillColor=none;align=left;verticalAlign=top;spacingLeft=4;spacingRight=4;overflow=hidden;rotatable=0;points=[[0,0.5],[1,0.5]];portConstraint=eastwest;" parent="-_xTnc1p_r5YANseTXnQ-24" vertex="1"><mxGeometry y="196" width="480" height="42" as="geometry"/></mxCell><mxCell id="-_xTnc1p_r5YANseTXnQ-62" value="&lt;&lt;GetMapping&gt;&gt;&#10;+ getUserById(&lt;&lt;PathVariable&gt;&gt;{id} id: int): User" style="text;strokeColor=none;fillColor=none;align=left;verticalAlign=top;spacingLeft=4;spacingRight=4;overflow=hidden;rotatable=0;points=[[0,0.5],[1,0.5]];portConstraint=eastwest;" parent="-_xTnc1p_r5YANseTXnQ-24" vertex="1"><mxGeometry y="238" width="480" height="46" as="geometry"/></mxCell><mxCell id="-_xTnc1p_r5YANseTXnQ-29" value="&lt;&lt;DeleteMapping&gt;&gt;&#10;+ deleteUser(&lt;&lt;PathVariable&gt;&gt;{id} id: int): void" style="text;strokeColor=none;fillColor=none;align=left;verticalAlign=top;spacingLeft=4;spacingRight=4;overflow=hidden;rotatable=0;points=[[0,0.5],[1,0.5]];portConstraint=eastwest;" parent="-_xTnc1p_r5YANseTXnQ-24" vertex="1"><mxGeometry y="284" width="480" height="40" as="geometry"/></mxCell><mxCell id="-_xTnc1p_r5YANseTXnQ-39" value="&lt;&lt;DeleteMapping&gt;&gt; value=&quot;/empty-user-db&quot;&#10;+ deleteAllUsers(): void" style="text;strokeColor=none;fillColor=none;align=left;verticalAlign=top;spacingLeft=4;spacingRight=4;overflow=hidden;rotatable=0;points=[[0,0.5],[1,0.5]];portConstraint=eastwest;" parent="-_xTnc1p_r5YANseTXnQ-24" vertex="1"><mxGeometry y="324" width="480" height="46" as="geometry"/></mxCell><mxCell id="-_xTnc1p_r5YANseTXnQ-40" value="&lt;&lt;PostMapping&gt;&gt;&#10;+ updateUser(&lt;&lt;PathVariable&gt;&gt;{id} id: int, &lt;&lt;RequestBody&gt;&gt; user: User): User" style="text;strokeColor=none;fillColor=none;align=left;verticalAlign=top;spacingLeft=4;spacingRight=4;overflow=hidden;rotatable=0;points=[[0,0.5],[1,0.5]];portConstraint=eastwest;" parent="-_xTnc1p_r5YANseTXnQ-24" vertex="1"><mxGeometry y="370" width="480" height="44" as="geometry"/></mxCell><mxCell id="-_xTnc1p_r5YANseTXnQ-34" style="edgeStyle=orthogonalEdgeStyle;rounded=0;orthogonalLoop=1;jettySize=auto;html=1;endArrow=diamond;endFill=1;entryX=0.5;entryY=1;entryDx=0;entryDy=0;" parent="WIyWlLk6GJQsqaUBKTNV-1" source="-_xTnc1p_r5YANseTXnQ-30" target="-_xTnc1p_r5YANseTXnQ-1" edge="1"><mxGeometry relative="1" as="geometry"><mxPoint x="-155" y="1020" as="targetPoint"/></mxGeometry></mxCell><mxCell id="-_xTnc1p_r5YANseTXnQ-30" value="«interface»&lt;br&gt;&lt;b&gt;UserRepository&lt;/b&gt;" style="html=1;" parent="WIyWlLk6GJQsqaUBKTNV-1" vertex="1"><mxGeometry x="-195" y="1210" width="110" height="50" as="geometry"/></mxCell><mxCell id="-_xTnc1p_r5YANseTXnQ-33" style="edgeStyle=orthogonalEdgeStyle;rounded=0;orthogonalLoop=1;jettySize=auto;html=1;entryX=0.5;entryY=1;entryDx=0;entryDy=0;endArrow=block;endFill=0;exitX=0.5;exitY=0;exitDx=0;exitDy=0;" parent="WIyWlLk6GJQsqaUBKTNV-1" source="-_xTnc1p_r5YANseTXnQ-17" target="-_xTnc1p_r5YANseTXnQ-30" edge="1"><mxGeometry relative="1" as="geometry"/></mxCell><mxCell id="-_xTnc1p_r5YANseTXnQ-50" value="&lt;&lt;Repository&gt;&gt; UserService" style="swimlane;fontStyle=2;align=center;verticalAlign=top;childLayout=stackLayout;horizontal=1;startSize=26;horizontalStack=0;resizeParent=1;resizeLast=0;collapsible=1;marginBottom=0;rounded=0;shadow=0;strokeWidth=1;" parent="WIyWlLk6GJQsqaUBKTNV-1" vertex="1"><mxGeometry x="-280" y="330" width="280" height="340" as="geometry"><mxRectangle x="230" y="140" width="160" height="26" as="alternateBounds"/></mxGeometry></mxCell><mxCell id="-_xTnc1p_r5YANseTXnQ-51" value="- final userDAO: UserDAO" style="text;align=left;verticalAlign=top;spacingLeft=4;spacingRight=4;overflow=hidden;rotatable=0;points=[[0,0.5],[1,0.5]];portConstraint=eastwest;" parent="-_xTnc1p_r5YANseTXnQ-50" vertex="1"><mxGeometry y="26" width="280" height="24" as="geometry"/></mxCell><mxCell id="-_xTnc1p_r5YANseTXnQ-52" value="" style="line;html=1;strokeWidth=1;align=left;verticalAlign=middle;spacingTop=-1;spacingLeft=3;spacingRight=3;rotatable=0;labelPosition=right;points=[];portConstraint=eastwest;" parent="-_xTnc1p_r5YANseTXnQ-50" vertex="1"><mxGeometry y="50" width="280" height="8" as="geometry"/></mxCell><mxCell id="-_xTnc1p_r5YANseTXnQ-57" value="&lt;&lt;Autowired&gt;&gt;&#10;+ UserService(userDAO: UserDAO)" style="text;strokeColor=none;fillColor=none;align=left;verticalAlign=top;spacingLeft=4;spacingRight=4;overflow=hidden;rotatable=0;points=[[0,0.5],[1,0.5]];portConstraint=eastwest;" parent="-_xTnc1p_r5YANseTXnQ-50" vertex="1"><mxGeometry y="58" width="280" height="42" as="geometry"/></mxCell><mxCell id="-_xTnc1p_r5YANseTXnQ-53" value="+ addUser(user: User): User" style="text;strokeColor=none;fillColor=none;align=left;verticalAlign=top;spacingLeft=4;spacingRight=4;overflow=hidden;rotatable=0;points=[[0,0.5],[1,0.5]];portConstraint=eastwest;" parent="-_xTnc1p_r5YANseTXnQ-50" vertex="1"><mxGeometry y="100" width="280" height="26" as="geometry"/></mxCell><mxCell id="-_xTnc1p_r5YANseTXnQ-54" value="+ getAllUsers(): User[]" style="text;strokeColor=none;fillColor=none;align=left;verticalAlign=top;spacingLeft=4;spacingRight=4;overflow=hidden;rotatable=0;points=[[0,0.5],[1,0.5]];portConstraint=eastwest;" parent="-_xTnc1p_r5YANseTXnQ-50" vertex="1"><mxGeometry y="126" width="280" height="26" as="geometry"/></mxCell><mxCell id="-_xTnc1p_r5YANseTXnQ-55" value="+ getUserById(id: int): void" style="text;strokeColor=none;fillColor=none;align=left;verticalAlign=top;spacingLeft=4;spacingRight=4;overflow=hidden;rotatable=0;points=[[0,0.5],[1,0.5]];portConstraint=eastwest;" parent="-_xTnc1p_r5YANseTXnQ-50" vertex="1"><mxGeometry y="152" width="280" height="26" as="geometry"/></mxCell><mxCell id="-_xTnc1p_r5YANseTXnQ-56" value="+ deleteUser(id: int): void" style="text;strokeColor=none;fillColor=none;align=left;verticalAlign=top;spacingLeft=4;spacingRight=4;overflow=hidden;rotatable=0;points=[[0,0.5],[1,0.5]];portConstraint=eastwest;" parent="-_xTnc1p_r5YANseTXnQ-50" vertex="1"><mxGeometry y="178" width="280" height="26" as="geometry"/></mxCell><mxCell id="-_xTnc1p_r5YANseTXnQ-61" value="+ deleteAllUsers(): void" style="text;strokeColor=none;fillColor=none;align=left;verticalAlign=top;spacingLeft=4;spacingRight=4;overflow=hidden;rotatable=0;points=[[0,0.5],[1,0.5]];portConstraint=eastwest;" parent="-_xTnc1p_r5YANseTXnQ-50" vertex="1"><mxGeometry y="204" width="280" height="26" as="geometry"/></mxCell><mxCell id="-_xTnc1p_r5YANseTXnQ-60" value="+ updateUser(user: User, id: int): User" style="text;strokeColor=none;fillColor=none;align=left;verticalAlign=top;spacingLeft=4;spacingRight=4;overflow=hidden;rotatable=0;points=[[0,0.5],[1,0.5]];portConstraint=eastwest;" parent="-_xTnc1p_r5YANseTXnQ-50" vertex="1"><mxGeometry y="230" width="280" height="26" as="geometry"/></mxCell><mxCell id="-_xTnc1p_r5YANseTXnQ-65" value="+ mapFromUser(user: User): UserDTO" style="text;strokeColor=none;fillColor=none;align=left;verticalAlign=top;spacingLeft=4;spacingRight=4;overflow=hidden;rotatable=0;points=[[0,0.5],[1,0.5]];portConstraint=eastwest;" parent="-_xTnc1p_r5YANseTXnQ-50" vertex="1"><mxGeometry y="256" width="280" height="26" as="geometry"/></mxCell><mxCell id="-_xTnc1p_r5YANseTXnQ-77" value="+ mapToUser(userDTO: UserDTO): User" style="text;strokeColor=none;fillColor=none;align=left;verticalAlign=top;spacingLeft=4;spacingRight=4;overflow=hidden;rotatable=0;points=[[0,0.5],[1,0.5]];portConstraint=eastwest;" parent="-_xTnc1p_r5YANseTXnQ-50" vertex="1"><mxGeometry y="282" width="280" height="28" as="geometry"/></mxCell><mxCell id="-_xTnc1p_r5YANseTXnQ-87" style="edgeStyle=orthogonalEdgeStyle;rounded=0;orthogonalLoop=1;jettySize=auto;html=1;entryX=0;entryY=0.5;entryDx=0;entryDy=0;endArrow=diamond;endFill=0;" parent="WIyWlLk6GJQsqaUBKTNV-1" source="-_xTnc1p_r5YANseTXnQ-78" target="-_xTnc1p_r5YANseTXnQ-54" edge="1"><mxGeometry relative="1" as="geometry"/></mxCell><mxCell id="-_xTnc1p_r5YANseTXnQ-78" value="User" style="swimlane;fontStyle=2;align=center;verticalAlign=top;childLayout=stackLayout;horizontal=1;startSize=26;horizontalStack=0;resizeParent=1;resizeLast=0;collapsible=1;marginBottom=0;rounded=0;shadow=0;strokeWidth=1;" parent="WIyWlLk6GJQsqaUBKTNV-1" vertex="1"><mxGeometry x="-610" y="293" width="220" height="217" as="geometry"><mxRectangle x="230" y="140" width="160" height="26" as="alternateBounds"/></mxGeometry></mxCell><mxCell id="-_xTnc1p_r5YANseTXnQ-79" value="- id: int" style="text;align=left;verticalAlign=top;spacingLeft=4;spacingRight=4;overflow=hidden;rotatable=0;points=[[0,0.5],[1,0.5]];portConstraint=eastwest;" parent="-_xTnc1p_r5YANseTXnQ-78" vertex="1"><mxGeometry y="26" width="220" height="24" as="geometry"/></mxCell><mxCell id="-_xTnc1p_r5YANseTXnQ-80" value="- name: String" style="text;align=left;verticalAlign=top;spacingLeft=4;spacingRight=4;overflow=hidden;rotatable=0;points=[[0,0.5],[1,0.5]];portConstraint=eastwest;" parent="-_xTnc1p_r5YANseTXnQ-78" vertex="1"><mxGeometry y="50" width="220" height="30" as="geometry"/></mxCell><mxCell id="-_xTnc1p_r5YANseTXnQ-81" value="- email: String" style="text;align=left;verticalAlign=top;spacingLeft=4;spacingRight=4;overflow=hidden;rotatable=0;points=[[0,0.5],[1,0.5]];portConstraint=eastwest;rounded=0;shadow=0;html=0;" parent="-_xTnc1p_r5YANseTXnQ-78" vertex="1"><mxGeometry y="80" width="220" height="26" as="geometry"/></mxCell><mxCell id="-_xTnc1p_r5YANseTXnQ-82" value="- password: String" style="text;align=left;verticalAlign=top;spacingLeft=4;spacingRight=4;overflow=hidden;rotatable=0;points=[[0,0.5],[1,0.5]];portConstraint=eastwest;" parent="-_xTnc1p_r5YANseTXnQ-78" vertex="1"><mxGeometry y="106" width="220" height="26" as="geometry"/></mxCell><mxCell id="-_xTnc1p_r5YANseTXnQ-83" value="" style="line;html=1;strokeWidth=1;align=left;verticalAlign=middle;spacingTop=-1;spacingLeft=3;spacingRight=3;rotatable=0;labelPosition=right;points=[];portConstraint=eastwest;" parent="-_xTnc1p_r5YANseTXnQ-78" vertex="1"><mxGeometry y="132" width="220" height="8" as="geometry"/></mxCell><mxCell id="-_xTnc1p_r5YANseTXnQ-84" value="&lt;&lt;Lombok&gt;&gt; &#10;@Data&#10;@NoArgsConstructor&#10;@AllArgsConstructor &#10;&#10;" style="text;align=left;verticalAlign=top;spacingLeft=4;spacingRight=4;overflow=hidden;rotatable=0;points=[[0,0.5],[1,0.5]];portConstraint=eastwest;" parent="-_xTnc1p_r5YANseTXnQ-78" vertex="1"><mxGeometry y="140" width="220" height="62" as="geometry"/></mxCell><mxCell id="-_xTnc1p_r5YANseTXnQ-86" style="edgeStyle=orthogonalEdgeStyle;rounded=0;orthogonalLoop=1;jettySize=auto;html=1;entryX=0;entryY=0.5;entryDx=0;entryDy=0;endArrow=diamond;endFill=0;" parent="WIyWlLk6GJQsqaUBKTNV-1" source="zkfFHV4jXpPFQw0GAbJ--3" target="-_xTnc1p_r5YANseTXnQ-60" edge="1"><mxGeometry relative="1" as="geometry"/></mxCell><mxCell id="-_xTnc1p_r5YANseTXnQ-90" value="FrontEnd" style="swimlane;fontStyle=0;childLayout=stackLayout;horizontal=1;startSize=26;fillColor=none;horizontalStack=0;resizeParent=1;resizeParentMax=0;resizeLast=0;collapsible=1;marginBottom=0;" parent="WIyWlLk6GJQsqaUBKTNV-1" vertex="1"><mxGeometry x="-210" y="-510" width="230" height="230" as="geometry"/></mxCell><mxCell id="-_xTnc1p_r5YANseTXnQ-96" value="searchForSong()&#10;showVideo()&#10;hideVideo()&#10;play()&#10;next() -- called automatically after each song&#10;previous()&#10;pause()&#10;quePlaylist()&#10;addSongtoPlaylist()&#10;progressbarAction()&#10;findArtistInfo()&#10;getLinkToArtistInfo()&#10;" style="text;strokeColor=none;fillColor=none;align=left;verticalAlign=top;spacingLeft=4;spacingRight=4;overflow=hidden;rotatable=0;points=[[0,0.5],[1,0.5]];portConstraint=eastwest;" parent="-_xTnc1p_r5YANseTXnQ-90" vertex="1"><mxGeometry y="26" width="230" height="204" as="geometry"/></mxCell><mxCell id="-_xTnc1p_r5YANseTXnQ-139" value="" style="edgeStyle=orthogonalEdgeStyle;rounded=0;orthogonalLoop=1;jettySize=auto;html=1;endArrow=diamond;endFill=1;entryX=0.75;entryY=1;entryDx=0;entryDy=0;" parent="WIyWlLk6GJQsqaUBKTNV-1" source="-_xTnc1p_r5YANseTXnQ-97" target="-_xTnc1p_r5YANseTXnQ-109" edge="1"><mxGeometry relative="1" as="geometry"><mxPoint x="370" y="310" as="targetPoint"/></mxGeometry></mxCell><mxCell id="-_xTnc1p_r5YANseTXnQ-97" value="&lt;&lt;Repository&gt;&gt; PlaylistService" style="swimlane;fontStyle=2;align=center;verticalAlign=top;childLayout=stackLayout;horizontal=1;startSize=26;horizontalStack=0;resizeParent=1;resizeLast=0;collapsible=1;marginBottom=0;rounded=0;shadow=0;strokeWidth=1;" parent="WIyWlLk6GJQsqaUBKTNV-1" vertex="1"><mxGeometry x="420" y="330" width="280" height="328" as="geometry"><mxRectangle x="230" y="140" width="160" height="26" as="alternateBounds"/></mxGeometry></mxCell><mxCell id="-_xTnc1p_r5YANseTXnQ-98" value="- playlistDAO: PlaylistDAO" style="text;align=left;verticalAlign=top;spacingLeft=4;spacingRight=4;overflow=hidden;rotatable=0;points=[[0,0.5],[1,0.5]];portConstraint=eastwest;" parent="-_xTnc1p_r5YANseTXnQ-97" vertex="1"><mxGeometry y="26" width="280" height="24" as="geometry"/></mxCell><mxCell id="-_xTnc1p_r5YANseTXnQ-99" value="" style="line;html=1;strokeWidth=1;align=left;verticalAlign=middle;spacingTop=-1;spacingLeft=3;spacingRight=3;rotatable=0;labelPosition=right;points=[];portConstraint=eastwest;" parent="-_xTnc1p_r5YANseTXnQ-97" vertex="1"><mxGeometry y="50" width="280" height="8" as="geometry"/></mxCell><mxCell id="-_xTnc1p_r5YANseTXnQ-100" value="&lt;&lt;Autowired&gt;&gt;&#10;+ playlistService(playlistDAO: PlaylistDAO)" style="text;strokeColor=none;fillColor=none;align=left;verticalAlign=top;spacingLeft=4;spacingRight=4;overflow=hidden;rotatable=0;points=[[0,0.5],[1,0.5]];portConstraint=eastwest;" parent="-_xTnc1p_r5YANseTXnQ-97" vertex="1"><mxGeometry y="58" width="280" height="42" as="geometry"/></mxCell><mxCell id="-_xTnc1p_r5YANseTXnQ-101" value="+ addPlaylist(playlist: Playlist): User" style="text;strokeColor=none;fillColor=none;align=left;verticalAlign=top;spacingLeft=4;spacingRight=4;overflow=hidden;rotatable=0;points=[[0,0.5],[1,0.5]];portConstraint=eastwest;" parent="-_xTnc1p_r5YANseTXnQ-97" vertex="1"><mxGeometry y="100" width="280" height="26" as="geometry"/></mxCell><mxCell id="-_xTnc1p_r5YANseTXnQ-102" value="+ getAllPlaylist(): Playlist[]" style="text;strokeColor=none;fillColor=none;align=left;verticalAlign=top;spacingLeft=4;spacingRight=4;overflow=hidden;rotatable=0;points=[[0,0.5],[1,0.5]];portConstraint=eastwest;" parent="-_xTnc1p_r5YANseTXnQ-97" vertex="1"><mxGeometry y="126" width="280" height="26" as="geometry"/></mxCell><mxCell id="-_xTnc1p_r5YANseTXnQ-103" value="+ getPlaylistById(id: int): void" style="text;strokeColor=none;fillColor=none;align=left;verticalAlign=top;spacingLeft=4;spacingRight=4;overflow=hidden;rotatable=0;points=[[0,0.5],[1,0.5]];portConstraint=eastwest;" parent="-_xTnc1p_r5YANseTXnQ-97" vertex="1"><mxGeometry y="152" width="280" height="26" as="geometry"/></mxCell><mxCell id="-_xTnc1p_r5YANseTXnQ-104" value="+ deletePlaylist(id: int): void" style="text;strokeColor=none;fillColor=none;align=left;verticalAlign=top;spacingLeft=4;spacingRight=4;overflow=hidden;rotatable=0;points=[[0,0.5],[1,0.5]];portConstraint=eastwest;" parent="-_xTnc1p_r5YANseTXnQ-97" vertex="1"><mxGeometry y="178" width="280" height="26" as="geometry"/></mxCell><mxCell id="-_xTnc1p_r5YANseTXnQ-105" value="+ deleteAllPlaylists(): void" style="text;strokeColor=none;fillColor=none;align=left;verticalAlign=top;spacingLeft=4;spacingRight=4;overflow=hidden;rotatable=0;points=[[0,0.5],[1,0.5]];portConstraint=eastwest;" parent="-_xTnc1p_r5YANseTXnQ-97" vertex="1"><mxGeometry y="204" width="280" height="26" as="geometry"/></mxCell><mxCell id="-_xTnc1p_r5YANseTXnQ-106" value="+ updatePlaylist(playlist: Playlist, id: int): User" style="text;strokeColor=none;fillColor=none;align=left;verticalAlign=top;spacingLeft=4;spacingRight=4;overflow=hidden;rotatable=0;points=[[0,0.5],[1,0.5]];portConstraint=eastwest;" parent="-_xTnc1p_r5YANseTXnQ-97" vertex="1"><mxGeometry y="230" width="280" height="26" as="geometry"/></mxCell><mxCell id="-_xTnc1p_r5YANseTXnQ-107" value="+ mapFromPlaylist(playlist: Playlist): PlaylistDTO" style="text;strokeColor=none;fillColor=none;align=left;verticalAlign=top;spacingLeft=4;spacingRight=4;overflow=hidden;rotatable=0;points=[[0,0.5],[1,0.5]];portConstraint=eastwest;" parent="-_xTnc1p_r5YANseTXnQ-97" vertex="1"><mxGeometry y="256" width="280" height="26" as="geometry"/></mxCell><mxCell id="-_xTnc1p_r5YANseTXnQ-108" value="+ mapToPlaylist(playlistDTO: PlaylistDTO): Playlist" style="text;strokeColor=none;fillColor=none;align=left;verticalAlign=top;spacingLeft=4;spacingRight=4;overflow=hidden;rotatable=0;points=[[0,0.5],[1,0.5]];portConstraint=eastwest;" parent="-_xTnc1p_r5YANseTXnQ-97" vertex="1"><mxGeometry y="282" width="280" height="26" as="geometry"/></mxCell><mxCell id="-_xTnc1p_r5YANseTXnQ-186" style="edgeStyle=orthogonalEdgeStyle;rounded=0;orthogonalLoop=1;jettySize=auto;html=1;entryX=0.744;entryY=0.999;entryDx=0;entryDy=0;entryPerimeter=0;endArrow=none;endFill=0;" parent="WIyWlLk6GJQsqaUBKTNV-1" source="-_xTnc1p_r5YANseTXnQ-109" target="-_xTnc1p_r5YANseTXnQ-96" edge="1"><mxGeometry relative="1" as="geometry"/></mxCell><mxCell id="-_xTnc1p_r5YANseTXnQ-109" value="&lt;&lt;RestController&gt;&gt; PlaylistController" style="swimlane;fontStyle=2;align=center;verticalAlign=top;childLayout=stackLayout;horizontal=1;startSize=26;horizontalStack=0;resizeParent=1;resizeLast=0;collapsible=1;marginBottom=0;rounded=0;shadow=0;strokeWidth=1;" parent="WIyWlLk6GJQsqaUBKTNV-1" vertex="1"><mxGeometry x="110" y="-160" width="510" height="420" as="geometry"><mxRectangle x="550" y="110" width="160" height="26" as="alternateBounds"/></mxGeometry></mxCell><mxCell id="-_xTnc1p_r5YANseTXnQ-110" value="&lt;&lt;RequestMapping&gt;&gt;&#10; value=&quot;/api/playlist&quot; " style="text;align=left;verticalAlign=top;spacingLeft=4;spacingRight=4;overflow=hidden;rotatable=0;points=[[0,0.5],[1,0.5]];portConstraint=eastwest;" parent="-_xTnc1p_r5YANseTXnQ-109" vertex="1"><mxGeometry y="26" width="510" height="44" as="geometry"/></mxCell><mxCell id="-_xTnc1p_r5YANseTXnQ-111" value="&lt;&lt;Autowired&gt;&gt;&#10;- playlistService: PlaylistService " style="text;align=left;verticalAlign=top;spacingLeft=4;spacingRight=4;overflow=hidden;rotatable=0;points=[[0,0.5],[1,0.5]];portConstraint=eastwest;" parent="-_xTnc1p_r5YANseTXnQ-109" vertex="1"><mxGeometry y="70" width="510" height="40" as="geometry"/></mxCell><mxCell id="-_xTnc1p_r5YANseTXnQ-112" value="" style="line;html=1;strokeWidth=1;align=left;verticalAlign=middle;spacingTop=-1;spacingLeft=3;spacingRight=3;rotatable=0;labelPosition=right;points=[];portConstraint=eastwest;" parent="-_xTnc1p_r5YANseTXnQ-109" vertex="1"><mxGeometry y="110" width="510" height="8" as="geometry"/></mxCell><mxCell id="-_xTnc1p_r5YANseTXnQ-113" value="+ PlaylistController(playlistService: PlaylistService)" style="text;strokeColor=none;fillColor=none;align=left;verticalAlign=top;spacingLeft=4;spacingRight=4;overflow=hidden;rotatable=0;points=[[0,0.5],[1,0.5]];portConstraint=eastwest;" parent="-_xTnc1p_r5YANseTXnQ-109" vertex="1"><mxGeometry y="118" width="510" height="32" as="geometry"/></mxCell><mxCell id="-_xTnc1p_r5YANseTXnQ-114" value="&lt;&lt;GetMapping&gt;&gt;&#10;+ addPlaylist(&lt;&lt;RequestBody&gt;&gt; playlist: Playlist): Playlist" style="text;strokeColor=none;fillColor=none;align=left;verticalAlign=top;spacingLeft=4;spacingRight=4;overflow=hidden;rotatable=0;points=[[0,0.5],[1,0.5]];portConstraint=eastwest;" parent="-_xTnc1p_r5YANseTXnQ-109" vertex="1"><mxGeometry y="150" width="510" height="46" as="geometry"/></mxCell><mxCell id="-_xTnc1p_r5YANseTXnQ-115" value="&lt;&lt;GetMapping&gt;&gt;&#10;+ getAllPlaylists(): Playlist[] " style="text;strokeColor=none;fillColor=none;align=left;verticalAlign=top;spacingLeft=4;spacingRight=4;overflow=hidden;rotatable=0;points=[[0,0.5],[1,0.5]];portConstraint=eastwest;" parent="-_xTnc1p_r5YANseTXnQ-109" vertex="1"><mxGeometry y="196" width="510" height="42" as="geometry"/></mxCell><mxCell id="-_xTnc1p_r5YANseTXnQ-116" value="&lt;&lt;GetMapping&gt;&gt;&#10;+ getPlaylistById(&lt;&lt;PathVariable&gt;&gt;{id} id: int): Playlist" style="text;strokeColor=none;fillColor=none;align=left;verticalAlign=top;spacingLeft=4;spacingRight=4;overflow=hidden;rotatable=0;points=[[0,0.5],[1,0.5]];portConstraint=eastwest;" parent="-_xTnc1p_r5YANseTXnQ-109" vertex="1"><mxGeometry y="238" width="510" height="46" as="geometry"/></mxCell><mxCell id="-_xTnc1p_r5YANseTXnQ-117" value="&lt;&lt;DeleteMapping&gt;&gt;&#10;+ deletePlaylist(&lt;&lt;PathVariable&gt;&gt;{id} id: int): void" style="text;strokeColor=none;fillColor=none;align=left;verticalAlign=top;spacingLeft=4;spacingRight=4;overflow=hidden;rotatable=0;points=[[0,0.5],[1,0.5]];portConstraint=eastwest;" parent="-_xTnc1p_r5YANseTXnQ-109" vertex="1"><mxGeometry y="284" width="510" height="40" as="geometry"/></mxCell><mxCell id="-_xTnc1p_r5YANseTXnQ-155" value="&lt;&lt;DeleteMapping&gt;&gt; value=&quot;/empty-playlist-db&quot;&#10;+ deleteAllPlaylists(): void" style="text;strokeColor=none;fillColor=none;align=left;verticalAlign=top;spacingLeft=4;spacingRight=4;overflow=hidden;rotatable=0;points=[[0,0.5],[1,0.5]];portConstraint=eastwest;" parent="-_xTnc1p_r5YANseTXnQ-109" vertex="1"><mxGeometry y="324" width="510" height="46" as="geometry"/></mxCell><mxCell id="-_xTnc1p_r5YANseTXnQ-119" value="&lt;&lt;PostMapping&gt;&gt;&#10;+ updatePlaylist(&lt;&lt;PathVariable&gt;&gt;{id} id: int, &lt;&lt;RequestBody&gt;&gt;playlist: Playlist): Playlist" style="text;strokeColor=none;fillColor=none;align=left;verticalAlign=top;spacingLeft=4;spacingRight=4;overflow=hidden;rotatable=0;points=[[0,0.5],[1,0.5]];portConstraint=eastwest;" parent="-_xTnc1p_r5YANseTXnQ-109" vertex="1"><mxGeometry y="370" width="510" height="44" as="geometry"/></mxCell><mxCell id="-_xTnc1p_r5YANseTXnQ-138" style="edgeStyle=orthogonalEdgeStyle;rounded=0;orthogonalLoop=1;jettySize=auto;html=1;entryX=0.414;entryY=0.973;entryDx=0;entryDy=0;entryPerimeter=0;endArrow=diamond;endFill=1;" parent="WIyWlLk6GJQsqaUBKTNV-1" source="-_xTnc1p_r5YANseTXnQ-120" target="-_xTnc1p_r5YANseTXnQ-108" edge="1"><mxGeometry relative="1" as="geometry"/></mxCell><mxCell id="-_xTnc1p_r5YANseTXnQ-120" value="&lt;&lt;Repository&gt;&gt; PlaylistDAO" style="swimlane;fontStyle=2;align=center;verticalAlign=top;childLayout=stackLayout;horizontal=1;startSize=26;horizontalStack=0;resizeParent=1;resizeLast=0;collapsible=1;marginBottom=0;rounded=0;shadow=0;strokeWidth=1;" parent="WIyWlLk6GJQsqaUBKTNV-1" vertex="1"><mxGeometry x="110" y="825" width="280" height="235" as="geometry"><mxRectangle x="230" y="140" width="160" height="26" as="alternateBounds"/></mxGeometry></mxCell><mxCell id="-_xTnc1p_r5YANseTXnQ-121" value="- playlistRepository: PlaylistRepository" style="text;align=left;verticalAlign=top;spacingLeft=4;spacingRight=4;overflow=hidden;rotatable=0;points=[[0,0.5],[1,0.5]];portConstraint=eastwest;" parent="-_xTnc1p_r5YANseTXnQ-120" vertex="1"><mxGeometry y="26" width="280" height="34" as="geometry"/></mxCell><mxCell id="-_xTnc1p_r5YANseTXnQ-122" value="" style="line;html=1;strokeWidth=1;align=left;verticalAlign=middle;spacingTop=-1;spacingLeft=3;spacingRight=3;rotatable=0;labelPosition=right;points=[];portConstraint=eastwest;" parent="-_xTnc1p_r5YANseTXnQ-120" vertex="1"><mxGeometry y="60" width="280" height="8" as="geometry"/></mxCell><mxCell id="3" value="+ PlaylistDAO(repository: PlaylistpRepository)" style="text;strokeColor=none;fillColor=none;align=left;verticalAlign=top;spacingLeft=4;spacingRight=4;overflow=hidden;rotatable=0;points=[[0,0.5],[1,0.5]];portConstraint=eastwest;" parent="-_xTnc1p_r5YANseTXnQ-120" vertex="1"><mxGeometry y="68" width="280" height="26" as="geometry"/></mxCell><mxCell id="-_xTnc1p_r5YANseTXnQ-123" value="+ addPlaylist(playlistDTO: PlaylistDTO): void" style="text;strokeColor=none;fillColor=none;align=left;verticalAlign=top;spacingLeft=4;spacingRight=4;overflow=hidden;rotatable=0;points=[[0,0.5],[1,0.5]];portConstraint=eastwest;" parent="-_xTnc1p_r5YANseTXnQ-120" vertex="1"><mxGeometry y="94" width="280" height="26" as="geometry"/></mxCell><mxCell id="-_xTnc1p_r5YANseTXnQ-124" value="+ getAllPlaylists(): Iterable&lt;PlaylistDTO[]&gt;" style="text;strokeColor=none;fillColor=none;align=left;verticalAlign=top;spacingLeft=4;spacingRight=4;overflow=hidden;rotatable=0;points=[[0,0.5],[1,0.5]];portConstraint=eastwest;" parent="-_xTnc1p_r5YANseTXnQ-120" vertex="1"><mxGeometry y="120" width="280" height="26" as="geometry"/></mxCell><mxCell id="-_xTnc1p_r5YANseTXnQ-125" value="+ findPlaylistById(id: int): Optional&lt;PlaylistDTO&gt;" style="text;strokeColor=none;fillColor=none;align=left;verticalAlign=top;spacingLeft=4;spacingRight=4;overflow=hidden;rotatable=0;points=[[0,0.5],[1,0.5]];portConstraint=eastwest;" parent="-_xTnc1p_r5YANseTXnQ-120" vertex="1"><mxGeometry y="146" width="280" height="26" as="geometry"/></mxCell><mxCell id="-_xTnc1p_r5YANseTXnQ-126" value="+ deleteById(id: int): void" style="text;strokeColor=none;fillColor=none;align=left;verticalAlign=top;spacingLeft=4;spacingRight=4;overflow=hidden;rotatable=0;points=[[0,0.5],[1,0.5]];portConstraint=eastwest;" parent="-_xTnc1p_r5YANseTXnQ-120" vertex="1"><mxGeometry y="172" width="280" height="26" as="geometry"/></mxCell><mxCell id="9" value="+ deleteAllPlaylists(): void" style="text;strokeColor=none;fillColor=none;align=left;verticalAlign=top;spacingLeft=4;spacingRight=4;overflow=hidden;rotatable=0;points=[[0,0.5],[1,0.5]];portConstraint=eastwest;" parent="-_xTnc1p_r5YANseTXnQ-120" vertex="1"><mxGeometry y="198" width="280" height="26" as="geometry"/></mxCell><mxCell id="-_xTnc1p_r5YANseTXnQ-137" style="edgeStyle=orthogonalEdgeStyle;rounded=0;orthogonalLoop=1;jettySize=auto;html=1;entryX=0.5;entryY=1;entryDx=0;entryDy=0;endArrow=diamond;endFill=1;" parent="WIyWlLk6GJQsqaUBKTNV-1" source="-_xTnc1p_r5YANseTXnQ-127" target="-_xTnc1p_r5YANseTXnQ-120" edge="1"><mxGeometry relative="1" as="geometry"/></mxCell><mxCell id="-_xTnc1p_r5YANseTXnQ-127" value="«interface»&lt;br&gt;&lt;b&gt;PlaylistRepository&lt;/b&gt;" style="html=1;" parent="WIyWlLk6GJQsqaUBKTNV-1" vertex="1"><mxGeometry x="195" y="1210" width="110" height="50" as="geometry"/></mxCell><mxCell id="-_xTnc1p_r5YANseTXnQ-154" style="edgeStyle=orthogonalEdgeStyle;rounded=0;orthogonalLoop=1;jettySize=auto;html=1;entryX=0;entryY=0.5;entryDx=0;entryDy=0;endArrow=diamond;endFill=0;" parent="WIyWlLk6GJQsqaUBKTNV-1" source="-_xTnc1p_r5YANseTXnQ-140" target="-_xTnc1p_r5YANseTXnQ-107" edge="1"><mxGeometry relative="1" as="geometry"/></mxCell><mxCell id="-_xTnc1p_r5YANseTXnQ-158" style="edgeStyle=orthogonalEdgeStyle;rounded=0;orthogonalLoop=1;jettySize=auto;html=1;entryX=1;entryY=0.5;entryDx=0;entryDy=0;endArrow=diamond;endFill=0;" parent="WIyWlLk6GJQsqaUBKTNV-1" source="-_xTnc1p_r5YANseTXnQ-140" target="-_xTnc1p_r5YANseTXnQ-157" edge="1"><mxGeometry relative="1" as="geometry"/></mxCell><mxCell id="-_xTnc1p_r5YANseTXnQ-140" value="&lt;&lt;Entity&gt;&gt; &lt;&lt;Table&gt;&gt; PlaylistDTO" style="swimlane;fontStyle=2;align=center;verticalAlign=top;childLayout=stackLayout;horizontal=1;startSize=26;horizontalStack=0;resizeParent=1;resizeLast=0;collapsible=1;marginBottom=0;rounded=0;shadow=0;strokeWidth=1;" parent="WIyWlLk6GJQsqaUBKTNV-1" vertex="1"><mxGeometry x="70" y="520" width="220" height="215" as="geometry"><mxRectangle x="230" y="140" width="160" height="26" as="alternateBounds"/></mxGeometry></mxCell><mxCell id="-_xTnc1p_r5YANseTXnQ-141" value="&lt;&lt;id&gt;&gt;&#10;&lt;&lt;strategy=GenerationType.AUTO&#10;- id: int" style="text;align=left;verticalAlign=top;spacingLeft=4;spacingRight=4;overflow=hidden;rotatable=0;points=[[0,0.5],[1,0.5]];portConstraint=eastwest;" parent="-_xTnc1p_r5YANseTXnQ-140" vertex="1"><mxGeometry y="26" width="220" height="54" as="geometry"/></mxCell><mxCell id="-_xTnc1p_r5YANseTXnQ-142" value="- playlistName: String" style="text;align=left;verticalAlign=top;spacingLeft=4;spacingRight=4;overflow=hidden;rotatable=0;points=[[0,0.5],[1,0.5]];portConstraint=eastwest;" parent="-_xTnc1p_r5YANseTXnQ-140" vertex="1"><mxGeometry y="80" width="220" height="30" as="geometry"/></mxCell><mxCell id="-_xTnc1p_r5YANseTXnQ-143" value="- songIds: String[0..*]" style="text;align=left;verticalAlign=top;spacingLeft=4;spacingRight=4;overflow=hidden;rotatable=0;points=[[0,0.5],[1,0.5]];portConstraint=eastwest;rounded=0;shadow=0;html=0;" parent="-_xTnc1p_r5YANseTXnQ-140" vertex="1"><mxGeometry y="110" width="220" height="26" as="geometry"/></mxCell><mxCell id="-_xTnc1p_r5YANseTXnQ-145" value="" style="line;html=1;strokeWidth=1;align=left;verticalAlign=middle;spacingTop=-1;spacingLeft=3;spacingRight=3;rotatable=0;labelPosition=right;points=[];portConstraint=eastwest;" parent="-_xTnc1p_r5YANseTXnQ-140" vertex="1"><mxGeometry y="136" width="220" height="8" as="geometry"/></mxCell><mxCell id="-_xTnc1p_r5YANseTXnQ-146" value="&lt;&lt;Lombok&gt;&gt; &#10;@Data&#10;@NoArgsConstructor&#10;@AllArgsConstructor &#10;&#10;" style="text;align=left;verticalAlign=top;spacingLeft=4;spacingRight=4;overflow=hidden;rotatable=0;points=[[0,0.5],[1,0.5]];portConstraint=eastwest;" parent="-_xTnc1p_r5YANseTXnQ-140" vertex="1"><mxGeometry y="144" width="220" height="62" as="geometry"/></mxCell><mxCell id="-_xTnc1p_r5YANseTXnQ-153" style="edgeStyle=orthogonalEdgeStyle;rounded=0;orthogonalLoop=1;jettySize=auto;html=1;endArrow=diamond;endFill=0;entryX=-0.004;entryY=0.077;entryDx=0;entryDy=0;entryPerimeter=0;" parent="WIyWlLk6GJQsqaUBKTNV-1" source="-_xTnc1p_r5YANseTXnQ-147" target="-_xTnc1p_r5YANseTXnQ-101" edge="1"><mxGeometry relative="1" as="geometry"><mxPoint x="390" y="454" as="targetPoint"/></mxGeometry></mxCell><mxCell id="-_xTnc1p_r5YANseTXnQ-160" style="edgeStyle=orthogonalEdgeStyle;rounded=0;orthogonalLoop=1;jettySize=auto;html=1;endArrow=diamond;endFill=0;entryX=1;entryY=0.856;entryDx=0;entryDy=0;entryPerimeter=0;" parent="WIyWlLk6GJQsqaUBKTNV-1" source="-_xTnc1p_r5YANseTXnQ-147" target="-_xTnc1p_r5YANseTXnQ-84" edge="1"><mxGeometry relative="1" as="geometry"><mxPoint x="-350" y="513" as="targetPoint"/><Array as="points"><mxPoint x="20" y="410"/><mxPoint x="20" y="734"/><mxPoint x="-350" y="734"/><mxPoint x="-350" y="513"/><mxPoint x="-380" y="513"/></Array></mxGeometry></mxCell><mxCell id="-_xTnc1p_r5YANseTXnQ-147" value="Playlist" style="swimlane;fontStyle=2;align=center;verticalAlign=top;childLayout=stackLayout;horizontal=1;startSize=26;horizontalStack=0;resizeParent=1;resizeLast=0;collapsible=1;marginBottom=0;rounded=0;shadow=0;strokeWidth=1;" parent="WIyWlLk6GJQsqaUBKTNV-1" vertex="1"><mxGeometry x="70" y="290" width="220" height="212.5" as="geometry"><mxRectangle x="230" y="140" width="160" height="26" as="alternateBounds"/></mxGeometry></mxCell><mxCell id="-_xTnc1p_r5YANseTXnQ-148" value="- id: int" style="text;align=left;verticalAlign=top;spacingLeft=4;spacingRight=4;overflow=hidden;rotatable=0;points=[[0,0.5],[1,0.5]];portConstraint=eastwest;" parent="-_xTnc1p_r5YANseTXnQ-147" vertex="1"><mxGeometry y="26" width="220" height="24" as="geometry"/></mxCell><mxCell id="-_xTnc1p_r5YANseTXnQ-149" value="- playlistName: String" style="text;align=left;verticalAlign=top;spacingLeft=4;spacingRight=4;overflow=hidden;rotatable=0;points=[[0,0.5],[1,0.5]];portConstraint=eastwest;" parent="-_xTnc1p_r5YANseTXnQ-147" vertex="1"><mxGeometry y="50" width="220" height="30" as="geometry"/></mxCell><mxCell id="-_xTnc1p_r5YANseTXnQ-150" value="- owner: Integer" style="text;align=left;verticalAlign=top;spacingLeft=4;spacingRight=4;overflow=hidden;rotatable=0;points=[[0,0.5],[1,0.5]];portConstraint=eastwest;rounded=0;shadow=0;html=0;" parent="-_xTnc1p_r5YANseTXnQ-147" vertex="1"><mxGeometry y="80" width="220" height="26" as="geometry"/></mxCell><mxCell id="10" value="- songIds: String[0..*]" style="text;align=left;verticalAlign=top;spacingLeft=4;spacingRight=4;overflow=hidden;rotatable=0;points=[[0,0.5],[1,0.5]];portConstraint=eastwest;rounded=0;shadow=0;html=0;" vertex="1" parent="-_xTnc1p_r5YANseTXnQ-147"><mxGeometry y="106" width="220" height="26" as="geometry"/></mxCell><mxCell id="-_xTnc1p_r5YANseTXnQ-151" value="" style="line;html=1;strokeWidth=1;align=left;verticalAlign=middle;spacingTop=-1;spacingLeft=3;spacingRight=3;rotatable=0;labelPosition=right;points=[];portConstraint=eastwest;" parent="-_xTnc1p_r5YANseTXnQ-147" vertex="1"><mxGeometry y="132" width="220" height="8" as="geometry"/></mxCell><mxCell id="-_xTnc1p_r5YANseTXnQ-152" value="&lt;&lt;Lombok&gt;&gt; &#10;@Data&#10;@NoArgsConstructor&#10;@AllArgsConstructor &#10;&#10;" style="text;align=left;verticalAlign=top;spacingLeft=4;spacingRight=4;overflow=hidden;rotatable=0;points=[[0,0.5],[1,0.5]];portConstraint=eastwest;" parent="-_xTnc1p_r5YANseTXnQ-147" vertex="1"><mxGeometry y="140" width="220" height="62" as="geometry"/></mxCell><mxCell id="-_xTnc1p_r5YANseTXnQ-164" value="&lt;&lt;Controller&gt;&gt; Controller" style="swimlane;fontStyle=2;align=center;verticalAlign=top;childLayout=stackLayout;horizontal=1;startSize=26;horizontalStack=0;resizeParent=1;resizeLast=0;collapsible=1;marginBottom=0;rounded=0;shadow=0;strokeWidth=1;" parent="WIyWlLk6GJQsqaUBKTNV-1" vertex="1"><mxGeometry x="160" y="-570" width="550" height="240" as="geometry"><mxRectangle x="550" y="110" width="160" height="26" as="alternateBounds"/></mxGeometry></mxCell><mxCell id="-_xTnc1p_r5YANseTXnQ-166" value="&lt;&lt;Autowired&gt;&gt;&#10;- playlistService: PlaylistService " style="text;align=left;verticalAlign=top;spacingLeft=4;spacingRight=4;overflow=hidden;rotatable=0;points=[[0,0.5],[1,0.5]];portConstraint=eastwest;" parent="-_xTnc1p_r5YANseTXnQ-164" vertex="1"><mxGeometry y="26" width="550" height="40" as="geometry"/></mxCell><mxCell id="-_xTnc1p_r5YANseTXnQ-175" value="&lt;&lt;Autowired&gt;&gt;&#10;- userService: UserService " style="text;align=left;verticalAlign=top;spacingLeft=4;spacingRight=4;overflow=hidden;rotatable=0;points=[[0,0.5],[1,0.5]];portConstraint=eastwest;" parent="-_xTnc1p_r5YANseTXnQ-164" vertex="1"><mxGeometry y="66" width="550" height="40" as="geometry"/></mxCell><mxCell id="-_xTnc1p_r5YANseTXnQ-167" value="" style="line;html=1;strokeWidth=1;align=left;verticalAlign=middle;spacingTop=-1;spacingLeft=3;spacingRight=3;rotatable=0;labelPosition=right;points=[];portConstraint=eastwest;" parent="-_xTnc1p_r5YANseTXnQ-164" vertex="1"><mxGeometry y="106" width="550" height="8" as="geometry"/></mxCell><mxCell id="-_xTnc1p_r5YANseTXnQ-165" value="&lt;&lt;RequestMapping&gt;&gt; value=&quot;index&quot;&#10;+ showIndexPage(model: Model {model.addAttribute(&quot;playlists&quot;, playlists)}): String &quot;index&quot; &lt;&lt;view&gt;&gt;&#10;&#10;&#10;&#10; " style="text;align=left;verticalAlign=top;spacingLeft=4;spacingRight=4;overflow=hidden;rotatable=0;points=[[0,0.5],[1,0.5]];portConstraint=eastwest;" parent="-_xTnc1p_r5YANseTXnQ-164" vertex="1"><mxGeometry y="114" width="550" height="56" as="geometry"/></mxCell><mxCell id="-_xTnc1p_r5YANseTXnQ-178" style="edgeStyle=orthogonalEdgeStyle;rounded=0;orthogonalLoop=1;jettySize=auto;html=1;entryX=0;entryY=0.107;entryDx=0;entryDy=0;entryPerimeter=0;endArrow=none;endFill=0;" parent="WIyWlLk6GJQsqaUBKTNV-1" source="-_xTnc1p_r5YANseTXnQ-96" target="-_xTnc1p_r5YANseTXnQ-165" edge="1"><mxGeometry relative="1" as="geometry"/></mxCell><mxCell id="-_xTnc1p_r5YANseTXnQ-183" value="PostgreSQL&lt;br&gt;DB" style="shape=cylinder3;whiteSpace=wrap;html=1;boundedLbl=1;backgroundOutline=1;size=15;" parent="WIyWlLk6GJQsqaUBKTNV-1" vertex="1"><mxGeometry x="5" y="1590" width="80" height="100" as="geometry"/></mxCell></root></mxGraphModel></diagram></mxfile>